<svg width="47.158203125" height="80.287109375" viewBox="0 0 47.158203125 80.287109375" xmlns="http://www.w3.org/2000/svg">
  <g fill-rule="nonzero" transform="scale(1,-1) translate(0,-80.287109375)">
    <path d="M40.09 55.215c0-.445-.126-.817-.376-1.117-.251-.301-.591-.502-1.02-.602L26.425 50.81c-.702-.158-1.167-.376-1.396-.655-.229-.28-.343-.805-.343-1.58V23.483c0-1.977-.323-3.656-.967-5.038-.645-1.383-1.48-2.5-2.503-3.352-1.024-.852-2.11-1.475-3.255-1.87-1.146-.393-2.22-.59-3.223-.59-1.504 0-2.832.297-3.985.891-1.152.595-2.055 1.418-2.707 2.471-.652 1.053-.978 2.267-.978 3.642 0 2.063.652 3.767 1.955 5.114 1.304 1.346 3.316 2.299 6.038 2.857l4.404.924c.63.129 1.11.426 1.44.891.328.466.464 1.057.407 1.773l-.064 30.551c0 1.433.838 2.328 2.514 2.685l13.879 3.03c.673.128 1.25 0 1.73-.387.48-.387.72-.924.72-1.612V55.215Z"/>
  </g>
</svg>
